<mxfile host="app.diagrams.net" modified="2022-10-27T01:50:10.976Z" agent="5.0 (X11; Linux x86_64) AppleWebKit/537.36 (KHTML, like Gecko) Chrome/102.0.0.0 Safari/537.36" etag="KscTTY4fBIhLLWaIpHD3" version="20.4.0" type="github" pages="2">
  <diagram id="wADDxIZ4hSgZw2CtbdWs" name="mcu_boot">
    <mxGraphModel dx="1350" dy="773" grid="1" gridSize="10" guides="1" tooltips="1" connect="1" arrows="1" fold="1" page="1" pageScale="1" pageWidth="850" pageHeight="1100" math="0" shadow="0">
      <root>
        <mxCell id="0" />
        <mxCell id="1" parent="0" />
        <mxCell id="lm6l3eIHGJC54JILPl7p-1" value="BootLoader" style="rounded=0;whiteSpace=wrap;html=1;fillColor=#ffe6cc;strokeColor=#d79b00;" vertex="1" parent="1">
          <mxGeometry x="70" y="120" width="120" height="60" as="geometry" />
        </mxCell>
        <mxCell id="lm6l3eIHGJC54JILPl7p-2" value="Slot 0" style="rounded=0;whiteSpace=wrap;html=1;fillColor=#dae8fc;strokeColor=#6c8ebf;" vertex="1" parent="1">
          <mxGeometry x="190" y="120" width="120" height="60" as="geometry" />
        </mxCell>
        <mxCell id="lm6l3eIHGJC54JILPl7p-3" value="Slot 1" style="rounded=0;whiteSpace=wrap;html=1;fillColor=#dae8fc;strokeColor=#6c8ebf;" vertex="1" parent="1">
          <mxGeometry x="310" y="120" width="120" height="60" as="geometry" />
        </mxCell>
        <mxCell id="lm6l3eIHGJC54JILPl7p-4" value="Scratch" style="rounded=0;whiteSpace=wrap;html=1;fillColor=#e1d5e7;strokeColor=#9673a6;" vertex="1" parent="1">
          <mxGeometry x="430" y="120" width="120" height="60" as="geometry" />
        </mxCell>
        <mxCell id="lm6l3eIHGJC54JILPl7p-5" value="Flash Layout" style="text;html=1;align=center;verticalAlign=middle;resizable=0;points=[];autosize=1;strokeColor=none;fillColor=none;" vertex="1" parent="1">
          <mxGeometry x="70" y="85" width="90" height="30" as="geometry" />
        </mxCell>
        <mxCell id="lm6l3eIHGJC54JILPl7p-6" value="Slot 0 : Primary image, core always run from here&lt;br style=&quot;font-size: 14px;&quot;&gt;Slot 1: For upgrade&lt;br style=&quot;font-size: 14px;&quot;&gt;Scratch: Used for swap Slot0 and Slot 1&lt;br style=&quot;font-size: 14px;&quot;&gt;An image trailer tracks state of swapping and upgrades" style="text;html=1;align=left;verticalAlign=middle;resizable=0;points=[];autosize=1;strokeColor=none;fillColor=none;fontStyle=0;fontSize=14;" vertex="1" parent="1">
          <mxGeometry x="80" y="195" width="370" height="80" as="geometry" />
        </mxCell>
      </root>
    </mxGraphModel>
  </diagram>
  <diagram id="hmWRDT0ehQaWyH9oh6_J" name="Page-2">
    <mxGraphModel dx="1350" dy="773" grid="1" gridSize="10" guides="1" tooltips="1" connect="1" arrows="1" fold="1" page="1" pageScale="1" pageWidth="850" pageHeight="1100" math="0" shadow="0">
      <root>
        <mxCell id="0" />
        <mxCell id="1" parent="0" />
      </root>
    </mxGraphModel>
  </diagram>
</mxfile>
